<?xml version="1.0" standalone="no"?>
<!DOCTYPE svg PUBLIC "-//W3C//DTD SVG 20010904//EN"
 "http://www.w3.org/TR/2001/REC-SVG-20010904/DTD/svg10.dtd">
<svg version="1.0" xmlns="http://www.w3.org/2000/svg"
 width="360.000000pt" height="386.000000pt" viewBox="0 0 360.000000 386.000000"
 preserveAspectRatio="xMidYMid meet">

<g transform="translate(0.000000,386.000000) scale(0.100000,-0.100000)"
fill="#000000" stroke="none">
<path d="M1625 3843 c-136 -17 -258 -40 -355 -68 -503 -145 -930 -493 -1175
-957 -103 -196 -117 -288 -61 -403 54 -108 153 -170 276 -170 148 0 219 55
317 248 77 152 154 258 263 366 175 172 402 293 650 347 107 23 389 26 495 5
166 -33 334 -101 474 -194 l85 -55 -35 -6 c-184 -31 -204 -38 -233 -86 -9 -16
-16 -49 -16 -74 0 -85 7 -89 559 -336 436 -196 499 -221 533 -217 21 3 50 12
63 21 53 34 52 31 60 616 7 501 6 548 -10 587 -29 74 -115 104 -185 68 -18
-10 -58 -57 -101 -123 -40 -59 -74 -109 -76 -111 -2 -3 -22 13 -46 36 -229
220 -593 408 -914 472 -176 36 -433 51 -568 34z"/>
<path d="M153 1595 c-18 -8 -41 -28 -52 -45 -17 -29 -19 -66 -26 -578 -7 -503
-6 -550 10 -589 29 -74 115 -104 185 -68 18 10 58 57 101 123 40 59 74 109 76
111 2 3 22 -13 46 -36 175 -168 462 -337 709 -417 501 -164 1068 -111 1523
141 217 121 419 290 574 484 123 152 235 344 281 480 51 149 -15 306 -158 376
-47 23 -70 28 -132 28 -148 -1 -219 -56 -317 -248 -36 -70 -92 -165 -126 -210
-153 -206 -373 -369 -617 -455 -157 -55 -236 -67 -440 -66 -173 1 -192 3 -300
31 -153 41 -265 90 -385 167 l-98 64 74 12 c95 15 140 27 159 43 34 26 50 62
50 109 0 87 -5 90 -557 337 -273 123 -505 221 -520 221 -15 -1 -43 -7 -60 -15z"/>
</g>
</svg>
