<?xml version="1.0" standalone="no"?>
<!DOCTYPE svg PUBLIC "-//W3C//DTD SVG 20010904//EN"
 "http://www.w3.org/TR/2001/REC-SVG-20010904/DTD/svg10.dtd">
<svg version="1.0" xmlns="http://www.w3.org/2000/svg"
 width="1877.000000pt" height="444.000000pt" viewBox="0 0 1877.000000 444.000000"
 preserveAspectRatio="xMidYMid meet">

<g transform="translate(0.000000,444.000000) scale(0.100000,-0.100000)"
fill="#000000" stroke="none">
<path d="M6560 3500 l0 -880 755 0 755 0 0 125 0 125 125 0 125 0 0 255 0 255
-125 0 -125 0 0 125 0 125 125 0 125 0 0 250 0 250 -125 0 -125 0 0 125 0 125
-755 0 -755 0 0 -880z m1260 380 l0 -250 -380 0 -380 0 0 250 0 250 380 0 380
0 0 -250z m0 -755 l0 -255 -380 0 -380 0 0 255 0 255 380 0 380 0 0 -255z"/>
<path d="M8820 4255 l0 -125 250 0 250 0 0 -630 0 -630 -250 0 -250 0 0 -125
0 -125 755 0 755 0 0 125 0 125 -255 0 -255 0 0 630 0 630 255 0 255 0 0 125
0 125 -755 0 -755 0 0 -125z"/>
<path d="M11090 4255 l0 -125 -125 0 -125 0 0 -125 0 -125 -125 0 -125 0 0
-380 0 -380 125 0 125 0 0 -125 0 -125 125 0 125 0 0 -125 0 -125 630 0 630 0
0 505 0 505 -375 0 -375 0 0 -125 0 -125 125 0 125 0 0 -255 0 -255 -255 0
-255 0 0 125 0 125 -125 0 -125 0 0 380 0 380 125 0 125 0 0 125 0 125 505 0
505 0 0 125 0 125 -630 0 -630 0 0 -125z"/>
<path d="M530 1030 l0 -880 630 0 630 0 0 125 0 125 125 0 125 0 0 125 0 125
125 0 125 0 0 380 0 380 -125 0 -125 0 0 125 0 125 -125 0 -125 0 0 125 0 125
-630 0 -630 0 0 -880z m1010 505 l0 -125 125 0 125 0 0 -380 0 -380 -125 0
-125 0 0 -125 0 -125 -255 0 -255 0 0 630 0 630 255 0 255 0 0 -125z"/>
<path d="M3040 1785 l0 -125 -125 0 -125 0 0 -125 0 -125 -125 0 -125 0 0
-630 0 -630 250 0 250 0 0 250 0 250 380 0 380 0 0 -250 0 -250 250 0 250 0 0
630 0 630 -125 0 -125 0 0 125 0 125 -125 0 -125 0 0 125 0 125 -380 0 -380 0
0 -125z m510 -250 l0 -125 125 0 125 0 0 -255 0 -255 -380 0 -380 0 0 255 0
255 125 0 125 0 0 125 0 125 130 0 130 0 0 -125z"/>
<path d="M4790 1785 l0 -125 250 0 250 0 0 -755 0 -755 250 0 250 0 0 755 0
755 255 0 255 0 0 125 0 125 -755 0 -755 0 0 -125z"/>
<path d="M7060 1785 l0 -125 -125 0 -125 0 0 -125 0 -125 -125 0 -125 0 0
-630 0 -630 250 0 250 0 0 250 0 250 380 0 380 0 0 -250 0 -250 250 0 250 0 0
630 0 630 -125 0 -125 0 0 125 0 125 -125 0 -125 0 0 125 0 125 -380 0 -380 0
0 -125z m510 -250 l0 -125 125 0 125 0 0 -255 0 -255 -380 0 -380 0 0 255 0
255 125 0 125 0 0 125 0 125 130 0 130 0 0 -125z"/>
<path d="M10590 1030 l0 -880 755 0 755 0 0 125 0 125 125 0 125 0 0 255 0
255 -125 0 -125 0 0 125 0 125 125 0 125 0 0 250 0 250 -125 0 -125 0 0 125 0
125 -755 0 -755 0 0 -880z m1260 380 l0 -250 -380 0 -380 0 0 250 0 250 380 0
380 0 0 -250z m0 -755 l0 -255 -380 0 -380 0 0 255 0 255 380 0 380 0 0 -255z"/>
<path d="M13100 1785 l0 -125 -125 0 -125 0 0 -125 0 -125 -125 0 -125 0 0
-630 0 -630 250 0 250 0 0 250 0 250 380 0 380 0 0 -250 0 -250 250 0 250 0 0
630 0 630 -125 0 -125 0 0 125 0 125 -125 0 -125 0 0 125 0 125 -380 0 -380 0
0 -125z m510 -250 l0 -125 125 0 125 0 0 -255 0 -255 -380 0 -380 0 0 255 0
255 125 0 125 0 0 125 0 125 130 0 130 0 0 -125z"/>
<path d="M14870 1785 l0 -125 -125 0 -125 0 0 -250 0 -250 125 0 125 0 0 -125
0 -125 505 0 505 0 0 -255 0 -255 -380 0 -380 0 0 125 0 125 -250 0 -250 0 0
-125 0 -125 125 0 125 0 0 -125 0 -125 630 0 630 0 0 125 0 125 125 0 125 0 0
255 0 255 -125 0 -125 0 0 125 0 125 -505 0 -505 0 0 250 0 250 255 0 255 0 0
-125 0 -125 250 0 250 0 0 125 0 125 -125 0 -125 0 0 125 0 125 -505 0 -505 0
0 -125z"/>
<path d="M16630 1030 l0 -880 880 0 880 0 0 125 0 125 -630 0 -630 0 0 255 0
255 505 0 505 0 0 125 0 125 -505 0 -505 0 0 250 0 250 630 0 630 0 0 125 0
125 -880 0 -880 0 0 -880z"/>
</g>
</svg>
